<svg xmlns="http://www.w3.org/2000/svg" viewBox="0 0 168 112"><defs><style>.cls-1{isolation:isolate;}.cls-2,.cls-7{fill:#004278;}.cls-3{fill:#a2c3dd;}.cls-4,.cls-8{fill:#3179b4;}.cls-5{fill:#336893;}.cls-6{mix-blend-mode:multiply;}.cls-7,.cls-8{fill-rule:evenodd;}</style></defs><title>logo</title><g class="cls-1"><g id="Ebene_2" data-name="Ebene 2"><g id="Ebene_1-2" data-name="Ebene 1"><path class="cls-2" d="M83.25,45.31c0,.15-.08,1.65-.08,2.69s-.52,9-.52,9,0,4-.15,5.09c0,.9,1.12.53,1.27.45l3.2-.45s3-.37,4.63-.37,1.94.67,2,1.8a1.87,1.87,0,0,1-.75,1.57l-1.19.37-4.7.38-4.54.45c-.23-.08-.08,1.94-.08,2.09,0,8.16-.52,13.92-.6,21.55l-5.59.53c-1,.07-1.41-1.27-1.41-1.27l.07-1.8L75,82.28l.3-7s.22-7.56.3-8.61.22-9.43.22-9.73c0-.15.22-5,.22-6.43.08-1.27.23-7.19.23-7.19s.22-2.69.37-3.74a1.76,1.76,0,0,1,1.12-1.49c.07-.08,1.12-.23,1.34-.38a.45.45,0,0,1,.52.38,10.67,10.67,0,0,0,1.64.07c.23-.07,4.7-.3,5.67-.22s6.79.07,7.75.15A36.81,36.81,0,0,0,99.73,38c.59,0,.89.59,1,1,0,.22-.07,1.57-.07,1.87a3.6,3.6,0,0,1-.23.82c-.22.3-1.34.3-2.09.23-.59.07-3.73.15-4,.22-.45,0-6.34.38-6.64.3-.37.08-3.65-.22-3.88-.15a.75.75,0,0,0-.52.52S83.25,45.16,83.25,45.31Z"/><path class="cls-2" d="M165.72,49.64c-.08,1-.45,5.62-2.69,7.86a23.28,23.28,0,0,1-6.34,5.24,15.82,15.82,0,0,1-3.58,1.2c-.67.22-2.76.37-3.05.45s-2.69-.3-2.76.22-.08,5.31-.08,5.31l.08,5.39a77,77,0,0,0-.15,7.86c.15,1.57.37,5,.37,5.16s.22,1.43-.89,1.65-3.36.38-3.36.38-2.24.37-2.39-.45-.37-3.74-.37-3.74.15-12.2.07-12.43-.44-12.87-.44-13.84.37-10.18.37-10.18l.15-8.83-.3-2.4s1.27-.15,1.64-.15a5.37,5.37,0,0,0,.82-.15s1.86,0,3.06-.07,6.56-.37,7.46-.45,3.58.52,4.62.67,4.92,1,6.71,4.34A11,11,0,0,1,165.72,49.64Zm-6.42-4.11c-.3-1.05-2.76-3.15-4.4-3.52a25.9,25.9,0,0,0-5.07-.37,13.11,13.11,0,0,0-2.24.37c0,.15-.07,5.31-.07,6.36-.07,1.2-.45,5.54-.45,6.66s.08,5.76.08,5.76.59.45.89.38,4.92-1.27,6.64-2.47c1.64-1.35,3.95-3.22,4.62-7S159.68,46.5,159.3,45.53Z"/><path class="cls-2" d="M107.31,39.68a9.08,9.08,0,0,1,3.79-2.24,32.76,32.76,0,0,1,7.26.05c2,.3,3.9.67,5.38,2.74a13.93,13.93,0,0,1,2.94,6.35,21.17,21.17,0,0,1,0,5.06c-.1.81-.58,1.83-1.18,2s-1.79.23-2.13-.45a15.62,15.62,0,0,1,.14-3.79,14.61,14.61,0,0,0-.84-5.09c-.33-1.12-1.46-2.73-2.56-3-1.25-.27-3.52-1.1-4.82.19a9.59,9.59,0,0,0-3,6.2c-.09,2.38-.21,5.42.74,7.84a31.8,31.8,0,0,0,3.63,6c1.08,1.36,4.62,5.9,6.11,7.81a26.66,26.66,0,0,1,3.07,6.52c.54,1.36,1.28,5.32.77,7.16s-1.72,4.55-3.47,5.6a17.35,17.35,0,0,1-4.5,2,12.5,12.5,0,0,1-9.71-1.15,25.45,25.45,0,0,1-4.22-3,29.32,29.32,0,0,1-3.86-5.8c-.13-.45-.68-1.37-.15-1.79.54-.57,1.41-2,1.84-1.64s1.46,2.32,2.3,3.5,3.42,4,4.73,4.63a7.42,7.42,0,0,0,7.66.52,4.74,4.74,0,0,0,2.4-3.07,9.28,9.28,0,0,0-.11-4.69,20.83,20.83,0,0,0-2.75-7,47.88,47.88,0,0,0-3.91-5.12c-.75-.9-2.18-3.13-2.18-3.13s-3-4.65-4.2-6.63a17.12,17.12,0,0,1-2.39-7.23,38.52,38.52,0,0,1,.54-4.59,14.18,14.18,0,0,1,.63-2.12A10,10,0,0,1,107.31,39.68Z"/><path class="cls-3" d="M67.31,9.73a5.61,5.61,0,1,1-7.64-8.22,5.61,5.61,0,0,1,7.64,8.22Z"/><path class="cls-4" d="M128.21,14.63A4.66,4.66,0,1,1,123.55,10,4.67,4.67,0,0,1,128.21,14.63Z"/><path class="cls-2" d="M104.32,19.89a2.29,2.29,0,1,1-2.29-2.3A2.29,2.29,0,0,1,104.32,19.89Z"/><path class="cls-5" d="M97.25,10.62a2.29,2.29,0,1,1,.11-3.24A2.28,2.28,0,0,1,97.25,10.62Z"/><path class="cls-4" d="M83.19,22.43a5.74,5.74,0,1,1,.28-8.12A5.72,5.72,0,0,1,83.19,22.43Z"/><ellipse class="cls-4" cx="59.26" cy="33.37" rx="3.55" ry="3.57"/><path class="cls-5" d="M52.72,19.31a4.66,4.66,0,1,1-4.65-4.68A4.66,4.66,0,0,1,52.72,19.31Z"/><path class="cls-2" d="M43.83,35.05a2.28,2.28,0,0,1-3.24-.11,2.29,2.29,0,1,1,3.24.11Z"/><path d="M71.84,99.49c.1,0,.14.06.14.17v.69c0,.06-.12.09-.35.09H71.3l-1.92,0v.22a3.11,3.11,0,0,1,0,.57c0,.62.09,1.59.14,2.92l0,.59.06,0,1.11,0h.71c.1,0,.14.1.14.29v.55a.12.12,0,0,1-.14.14h-.92c-.19,0-.51,0-1,0l0,1.29,0,.5.06,3.9s0,.09-.16.11h-.88a.1.1,0,0,1-.11-.11c0-.39,0-.78,0-1.18s0-.48,0-.66c0-.71,0-1.18,0-1.39q0-6-.12-8.06V99.6s.06-.08.17-.08l.23,0,.19,0Z"/><path d="M76.88,99.57c1.22,0,2,.33,2.24,1a3.81,3.81,0,0,1,.34,1.8v1.17a3.28,3.28,0,0,1-.76,2.25,7.63,7.63,0,0,1-.76.56q1.75,5.13,1.75,5.28s0,0-.11,0h-.32c-.43,0-.65,0-.65-.06a10,10,0,0,1-.77-2.3,8.42,8.42,0,0,1-.36-.91,7.12,7.12,0,0,0-.67-2h-.49c-.13,0-.2.1-.2.21,0,1.3,0,2,.06,2.26l0,.12.06,1.46v.68c0,.13,0,.3,0,.52,0,0,0,.07-.17.07h-.8c-.12,0-.17-.09-.17-.29v-.16l0-.28c0-.13,0-.2,0-.2l0-.23v-.65l0-1.17c0-.3,0-1.37,0-3.21v-.08c-.06-.8-.1-2.71-.12-5.75a.14.14,0,0,1,.14-.11Zm-.82,1v1.61l0,2v1.17a.06.06,0,0,0,.06,0c1.17,0,1.83-.17,2-.52a2.33,2.33,0,0,0,.28-1.19c0-.52,0-.94,0-1.26v-.51c-.09-.9-.43-1.35-1-1.35Z"/><path d="M85.42,99.38a2.12,2.12,0,0,1,2.09,1.23,3.73,3.73,0,0,1,.2,1.1V102s0,.06,0,.06l0,.54v3.33a4.89,4.89,0,0,1,0,.54l0,.65v1.2a.29.29,0,0,0,0,.12l0,0,.07,1.06a2.12,2.12,0,0,1-1.68,2.31,3.51,3.51,0,0,1-.68.06,2.33,2.33,0,0,1-1.68-.6c-.07,0-.11-.06-.14-.17a2,2,0,0,1-.44-1.31q0-1.67,0-2.64v-.29c0-.13,0-.29,0-.5a2.6,2.6,0,0,1,0-.5V104c-.06-.68-.09-1.21-.09-1.58V102a2.36,2.36,0,0,1,1.27-2.41A4.89,4.89,0,0,1,85.42,99.38ZM84.31,97.1H85a.15.15,0,0,1,.17.17V98c0,.09,0,.14-.12.14h-.71a.13.13,0,0,1-.14-.14v-.36a2.6,2.6,0,0,0,0-.35C84.14,97.15,84.19,97.1,84.31,97.1Zm-.06,4.46c0,.69,0,2,0,3.85l0,1.74,0,2.08c0,.82.16,1.31.49,1.46a1.7,1.7,0,0,0,.91.16q.87,0,1-1.23l0-1.21,0-.5q0-3,0-3.87a2,2,0,0,1,0-.32,3.4,3.4,0,0,1,0-.45v-1.52c0-.91-.39-1.36-1.19-1.36a1.06,1.06,0,0,0-1.07.62A1.74,1.74,0,0,0,84.25,101.56ZM86,97.1a4.9,4.9,0,0,1,.5,0c.13,0,.2.06.2.17l0,.71c0,.07,0,.11-.1.11h-.75c-.06,0-.09-.09-.09-.26v-.39c0-.24.07-.36.2-.36Z"/><path d="M92.08,99.46c1.75,0,2.76.13,3,.39a2.2,2.2,0,0,1,.89,1.94v.54a4.42,4.42,0,0,1-.33,1.84,2.42,2.42,0,0,1-.82,1,2.61,2.61,0,0,1,1.3,2.58V109c0,1.38-.5,2.23-1.52,2.56a3.91,3.91,0,0,1-.65.1h-2q-.24,0-.24-.21c0-.14,0-1.09,0-2.84,0,0,0-.12,0-.32,0,0,0-.13,0-.31a1,1,0,0,1,0-.25c0-.51-.06-1-.06-1.48l0-.2a1.94,1.94,0,0,0,0-.22q.06-3.36.06-6,0-.3.24-.3Zm.74,1v1.06c0,.9,0,1.8-.09,2.72v.52l.21,0h.33c.72,0,1.19-.19,1.39-.58a8.11,8.11,0,0,0,.23-2.34,1.24,1.24,0,0,0-.38-1,1.69,1.69,0,0,0-.79-.36l-.27,0a2.76,2.76,0,0,0-.44,0ZM93,105.7l-.19,0c-.07,0-.11.08-.12.19l0,.23,0,.76,0,3.64c0,.11.07.17.15.17h.3l.54,0a1.26,1.26,0,0,0,1.21-.79c0-.43.06-1.13.06-2.12s-.18-1.58-.53-1.81a2.38,2.38,0,0,0-1.08-.24s-.08,0-.23,0A.35.35,0,0,1,93,105.7Z"/><path d="M101.19,99.51a.4.4,0,0,0,.21,0l.15,0h.37l1.46,0q.12,0,.12.3v.51c0,.11,0,.17-.09.17l-1.08,0-.89,0a1.09,1.09,0,0,0-.26,0l-.28.11a2.52,2.52,0,0,0,0,.51q0,.93,0,1.59v1.91c0,.14.07.21.22.21l1.62,0c.11,0,.16.08.16.24v.6a.14.14,0,0,1-.16.16H101a.2.2,0,0,0-.09.2v.45a4.39,4.39,0,0,1,0,.7c0,.46,0,.82,0,1.09v2.41l.3.06h2.21a.08.08,0,0,1,.09.09v.73c0,.1,0,.14-.06.14h-.09l-.64,0-.17,0-.2,0-1.1,0h-.57l-.64,0a.27.27,0,0,1-.12,0s-.07,0-.11-.09l.06-1.52a8.19,8.19,0,0,1-.06-1.11v-1.33c0-1,0-1.53,0-1.65v-.82c0-.12,0-.18,0-.2a3.55,3.55,0,0,1,0-.41V99.66a.58.58,0,0,1,0-.14h1.36Z"/><path d="M107.35,99.49h.89c.08,0,.11.09.11.27v3q0,.6,0,1.62l0,.06c0,.24,0,.42,0,.55v2.23a3.58,3.58,0,0,1,0,.36l0,.08a1.19,1.19,0,0,0,0,.17,1.7,1.7,0,0,0,0,.37c0,.41,0,.79,0,1.12v1.17l.1.18c.58,0,1.41-.06,2.47-.06,0,0,0,0,0,.05l0,0v.72c0,.11-.09.17-.26.17q-1.06,0-2.31.06a1.09,1.09,0,0,0-.26,0l-.71,0c-.08,0-.13,0-.14-.06s0-.17,0-.44q-.06-1.86-.06-2.16c0-.67,0-1.81,0-3.41s-.06-2.8-.06-3.45c0-1.48,0-2.35,0-2.6C107.25,99.51,107.28,99.49,107.35,99.49Z"/><path d="M116.27,99.42a2,2,0,0,1,2.06,1.33,3.08,3.08,0,0,1,.15.75,5.62,5.62,0,0,1,0,.57v.06a.18.18,0,0,1-.2.2h-.63c-.18,0-.27,0-.27-.17v-.45c0-.64-.21-1-.65-1.22a1,1,0,0,0-.43-.13,1.22,1.22,0,0,0-1.07.38,2,2,0,0,0-.29.88,3.43,3.43,0,0,0,.17.82,11.12,11.12,0,0,0,1.22,2.27l1.44,2.6a8.43,8.43,0,0,1,.4.79,4.82,4.82,0,0,1,.33,1.44,2,2,0,0,1-1.6,2.22,3.64,3.64,0,0,1-.83.09,2,2,0,0,1-1.81-1,2.94,2.94,0,0,1-.31-1.44c0-.17,0-.35,0-.53a.13.13,0,0,1,.09-.1l.78.07q.09,0,.09.09a2.83,2.83,0,0,0,.44,1.63,1.3,1.3,0,0,0,1,.33c.52,0,.85-.17,1-.42a2,2,0,0,0,.18-.89,12.66,12.66,0,0,0-2.08-4.33,13.37,13.37,0,0,1-1.06-2,3,3,0,0,1-.24-.65,4.55,4.55,0,0,1-.1-1,2,2,0,0,1,1.35-2.08A4.78,4.78,0,0,1,116.27,99.42Z"/><path d="M123.63,99.51a.38.38,0,0,0,.2,0l.16,0h.37l1.45,0c.08,0,.13.11.13.3v.51c0,.11,0,.17-.1.17l-1.08,0-.88,0a1.18,1.18,0,0,0-.27,0l-.28.11a1.77,1.77,0,0,0,0,.51c0,.62,0,1.15,0,1.59v1.91a.19.19,0,0,0,.22.21l1.63,0q.15,0,.15.24v.6a.14.14,0,0,1-.15.16h-1.72a.2.2,0,0,0-.09.2v.45a3.08,3.08,0,0,1,0,.7c0,.46,0,.82,0,1.09v2.41l.29.06h2.21c.07,0,.1,0,.1.09v.73c0,.1,0,.14-.07.14h-.09l-.63,0-.17,0-.21,0-1.09,0h-.58l-.63,0a.27.27,0,0,1-.12,0s-.07,0-.11-.09l.06-1.52a8.19,8.19,0,0,1-.06-1.11v-1.33c0-1,0-1.53,0-1.65v-.82c0-.12,0-.18,0-.2a3,3,0,0,1,0-.41V99.66a.58.58,0,0,1,0-.14h1.36Z"/><path d="M130.9,99.49l.15,0a.27.27,0,0,0,.12,0c.24,0,.36.1.36.29l.12.79.24,1.14c.1.44.24,1.16.43,2.15s.4,2.09.65,3.32c.09.45.18,1,.25,1.64h.11c.11-.65.2-1.25.27-1.82l1-5.73c.23-.76.37-1.3.43-1.62a.51.51,0,0,1,.22-.17h1.27c.15,0,.23.1.23.32v2.07a2,2,0,0,1,0,.32,1.53,1.53,0,0,1,0,.3l0,6.4,0,1.46c0,.62,0,1,0,1.24,0,0-.05,0-.17,0l-.69,0c-.13,0-.19-.1-.19-.29v-.87l0-1.17v-2l0-.55v-1.28a1.84,1.84,0,0,0,0-.33l0-.06a4.36,4.36,0,0,0,0-.51c0-.43,0-.71,0-.86l0-.15,0-.14c0-.25,0-1-.05-2.19l-.08,0c-.18,1-.31,1.62-.37,2s-.36,2-.86,4.85c-.43,2.25-.67,3.44-.73,3.57a.8.8,0,0,1-.23,0h-.34a.24.24,0,0,1-.17-.17l-.13-.68q-.17-.92-1.53-7.8c-.1-.53-.23-1.1-.37-1.72l-.09,0c0,1.22,0,1.84,0,1.87v0a1.57,1.57,0,0,0,0,.32c0,.22,0,.4,0,.55v7.5c0,.07-.05.11-.17.11h-.73c-.11,0-.17,0-.17-.14v-.19c0-.47,0-.94,0-1.41l.06-.87a1.91,1.91,0,0,0,0-.28c0-.66,0-1.23,0-1.73v-.45c0-.21,0-.33.05-.35a3.64,3.64,0,0,1-.05-.42V99.65a.12.12,0,0,1,.14-.14h.48l.37,0Z"/><path d="M140.87,99.43h.77a.13.13,0,0,1,.11,0,.28.28,0,0,0,0,.09c0,1,.06,2.58.08,4.86v5.39a4,4,0,0,0,0,.47,1.71,1.71,0,0,0,0,.4,6.68,6.68,0,0,0,.06.73.27.27,0,0,1-.17.19H141c-.12,0-.17,0-.17-.08l-.09-8.33a2.87,2.87,0,0,0,0-.52l0-1.49V99.6A.15.15,0,0,1,140.87,99.43Z"/><path d="M146.05,99.54l.09,0a2.37,2.37,0,0,1,.45-.09h.51a.46.46,0,0,1,.34.2l.84,3.54c.74,3,1.25,5.31,1.51,6.9h.08l-.06-1.9,0-1.77.06-1.27a1.78,1.78,0,0,1,0-.28q0-.77.06-.93l0-.58a3.79,3.79,0,0,1,0-.64c0-.33,0-.63,0-.91V99.65a.15.15,0,0,1,.17-.17h.79c.07,0,.11.08.11.26v1.59a4.89,4.89,0,0,1,0,.54,2.72,2.72,0,0,1,0,.48v1q0,.48,0,4a2.75,2.75,0,0,1,0,.5c0,.22,0,.43,0,.64v1.83c0,.22,0,.46,0,.75a.42.42,0,0,0,0,.18,1.69,1.69,0,0,1,0,.22c0,.1-.06.15-.14.15h-1.38l-.14-.09c0-.16-.11-.49-.21-1l-.81-3.46-.32-1.76a21.79,21.79,0,0,1-.56-2.44l-.45-1.78h-.12l.07,1.61,0,.47v2.3c0,.35,0,.62,0,.8v1.22a2.56,2.56,0,0,1,0,.39,2.34,2.34,0,0,1,0,.38v3.09q0,.27-.09.27l-.36.06-.46,0a.15.15,0,0,1-.13-.09l0-.55c0-.15,0-.23.07-.23l0-.4V109a1.45,1.45,0,0,1,0-.3,2,2,0,0,1,0-.32l0-2.49v-4a1.22,1.22,0,0,0,0-.26l0-.07,0-.35a.32.32,0,0,1,0-.17c0-.23,0-.4,0-.5v-.9C145.85,99.59,145.92,99.54,146.05,99.54Z"/><path d="M156.27,99.46h1.59c.15,0,.26.19.31.45q.36,2.25,1,6.89l-.08.14a4.58,4.58,0,0,1,.31,1.51l0,.18a9.38,9.38,0,0,1,.25,1.43c.11.78.17,1.23.18,1.34s-.08.22-.18.22h-.75c-.15,0-.23-.17-.23-.5a27,27,0,0,0-.35-2.92l-1.32,0h-.77c-.17,0-.34,1-.53,3.08,0,.2-.09.31-.17.31h-.84c-.06,0-.09,0-.1,0v-.07q.82-6.58.93-7c0-.13,0-.2,0-.2q.63-4.47.66-4.62A.36.36,0,0,1,156.27,99.46Zm.65,1q-.27,2.15-.81,6.82h2s0-.06,0-.06l-.85-6.72Z"/><path d="M165.18,99.57c1.23,0,2,.33,2.25,1a3.94,3.94,0,0,1,.34,1.8v1.17a3.28,3.28,0,0,1-.76,2.25,7.63,7.63,0,0,1-.76.56q1.75,5.13,1.75,5.28a.12.12,0,0,1-.11,0h-.32c-.44,0-.65,0-.65-.06a9.81,9.81,0,0,1-.78-2.3c-.15-.35-.27-.66-.35-.91a7.12,7.12,0,0,0-.67-2h-.49c-.14,0-.2.1-.2.21,0,1.3,0,2,.06,2.26l0,.12.06,1.46v.68c0,.13,0,.3,0,.52,0,0-.06.07-.17.07h-.8c-.12,0-.17-.09-.17-.29v-.16l0-.28c0-.13,0-.2,0-.2l0-.23v-.65l0-1.17c0-.3,0-1.37,0-3.21v-.08c-.06-.8-.1-2.71-.12-5.75a.14.14,0,0,1,.14-.11Zm-.82,1v1.61l0,2v1.17a.09.09,0,0,0,.07,0c1.17,0,1.83-.17,2-.52a2.33,2.33,0,0,0,.28-1.19c0-.52,0-.94,0-1.26v-.51c-.09-.9-.43-1.35-1-1.35Z"/><g class="cls-6"><path class="cls-7" d="M13.73,48.44a68.82,68.82,0,0,1-1-7.69c-.11-1.19-1.58-1.46-2.23-.17-.76,1.48-2.69,13.19-3.2,18.58-.49,5.23-2.8,13.35-4,21-.8,5-1.44,7.58-2.16,12.19C.53,96.48-.75,103,.58,107.13c.89,2.78,1.42,3.17,2.66,3.2s1.51-1,1.76-2.2c1.27-9,2.43-13.4,3.55-16.15.69-1.7,2.55-3.75,3.39-1.35,2.51,7.18,1.13,14.37,2.62,18.67.66,1.89,1.47,2.7,2.8,2.7,2.21-.25,2.51-6.79,2.51-14.07.07-16.81,1.34-22.21,8.68-30.63,1.67-1.93,7.5-7.43,5.89-8.54-1.08-.73-2.38.37-5,2C23.61,64.24,17.71,59,15.79,55A25.86,25.86,0,0,1,13.73,48.44Z"/></g><path class="cls-7" d="M18.39,49.37a7.29,7.29,0,1,1,7.29,7.31,7.3,7.3,0,0,1-7.29-7.31"/><g class="cls-6"><path class="cls-8" d="M39.11,63a2.58,2.58,0,0,0-.08-.92c-.55-.86-1.54-.5-2.09-.08a6.26,6.26,0,0,0-1.22,2.18c-4.53,12.64-7.48,21.24-8.24,30.26a58.46,58.46,0,0,0-.18,7.63c.15,3.23,0,4.44.81,7.07.53,2.35,2.26,1.86,2.68,1.34a1,1,0,0,0,.27-.57c1.57-11,3.25-15,5-13,5.92,10.06,6.8,12.3,10.09,13.94,1.54,1,4.06.93,3.16-1.34s-2.11-5.37-2.55-6.83c-3.68-12.2-.37-19.58,13.43-28.76.11-.08.64-.52.2-1s-1.74-.86-4.56.41C47.73,77,42.07,78.78,40.4,76.81S39.11,70.36,39.11,63Z"/></g><path class="cls-8" d="M40.88,68.31a6.3,6.3,0,1,1,6.29,6.32,6.31,6.31,0,0,1-6.29-6.32"/></g></g></g></svg>